<?xml version="1.0" encoding="UTF-8" standalone="no"?>
<!-- Created with Inkscape (http://www.inkscape.org/) -->

<svg
   width="43.331245mm"
   height="41.498894mm"
   viewBox="0 0 43.331246 41.498895"
   version="1.1"
   id="svg11454"
   inkscape:version="1.1.2 (0a00cf5339, 2022-02-04)"
   sodipodi:docname="logo2.svg"
   inkscape:export-filename="/home/anna/Code/kokenylab/src/logo2.png"
   inkscape:export-xdpi="96"
   inkscape:export-ydpi="96"
   xmlns:inkscape="http://www.inkscape.org/namespaces/inkscape"
   xmlns:sodipodi="http://sodipodi.sourceforge.net/DTD/sodipodi-0.dtd"
   xmlns="http://www.w3.org/2000/svg"
   xmlns:svg="http://www.w3.org/2000/svg">
  <sodipodi:namedview
     id="namedview11456"
     pagecolor="#ffffff"
     bordercolor="#666666"
     borderopacity="1.0"
     inkscape:pageshadow="2"
     inkscape:pageopacity="0.0"
     inkscape:pagecheckerboard="0"
     inkscape:document-units="mm"
     showgrid="false"
     inkscape:zoom="1.3249068"
     inkscape:cx="25.662181"
     inkscape:cy="136.99076"
     inkscape:window-width="1600"
     inkscape:window-height="831"
     inkscape:window-x="0"
     inkscape:window-y="0"
     inkscape:window-maximized="1"
     inkscape:current-layer="layer1" />
  <defs
     id="defs11451" />
  <g
     inkscape:label="Layer 1"
     inkscape:groupmode="layer"
     id="layer1"
     transform="translate(-83.457706,-95.661236)">
    <ellipse
       style="fill:#ffffff;fill-opacity:1;stroke:none;stroke-width:0.926591;stroke-linecap:round;stroke-miterlimit:4;stroke-dasharray:none;stroke-opacity:1"
       id="path6930-2-1-1"
       cx="105.12333"
       cy="116.41068"
       rx="21.665623"
       ry="20.749447"
       inkscape:export-filename="/home/anna/Code/kokenylab/src/logo2.png"
       inkscape:export-xdpi="96"
       inkscape:export-ydpi="96" />
    <g
       id="g11431"
       transform="matrix(0.44237666,0,0,0.44237666,-30.253729,197.79693)"
       inkscape:export-filename="/home/anna/Code/kokenylab/src/logo2.png"
       inkscape:export-xdpi="96"
       inkscape:export-ydpi="96">
      <path
         style="fill:#e3a52d;fill-opacity:1;stroke:none;stroke-width:1.25366px;stroke-linecap:butt;stroke-linejoin:miter;stroke-opacity:1"
         d="m 291.72736,-214.49887 c -4.48456,-2.12892 -9.84085,-2.09204 -14.38444,-0.2641 -8.02903,2.55363 -11.58299,10.4199 -12.00575,16.18931 -0.37903,3.09128 -1.08026,6.22489 -0.29422,9.32887 1.1003,5.15852 3.80846,9.81141 6.16344,14.50887 3.04132,5.18563 8.24664,9.50727 14.40492,10.51251 3.74779,0.12908 8.01246,-0.0259 10.9149,-2.60653 2.29019,-2.22239 3.6783,-5.26065 4.3266,-8.31251 0.61575,-5.30319 -2.67737,-9.96372 -5.46741,-14.23606 -1.78496,-2.81304 -1.98418,-6.51734 -0.0634,-9.29794 4.82003,-6.04105 3.40046,-12.95931 -3.59467,-15.82242 z"
         id="path1203-3-2-0"
         sodipodi:nodetypes="ccccccccccc" />
      <path
         style="fill:#d1913e;fill-opacity:1;stroke:none;stroke-width:1.25366px;stroke-linecap:butt;stroke-linejoin:miter;stroke-opacity:1"
         d="m 319.39951,-199.54793 c 4.39157,-2.31469 9.7447,-2.50195 14.3608,-0.8657 8.12884,2.21546 12.00882,9.92613 12.67259,15.67281 0.50804,3.0727 1.33977,6.17424 0.68425,9.3084 -0.8835,5.20003 -3.39461,9.96215 -5.55099,14.75403 -2.82169,5.30834 -7.84163,9.84398 -13.95246,11.106 -3.73911,0.28575 -8.00653,0.30934 -11.0144,-2.14757 -2.38117,-2.12462 -3.89518,-5.10214 -4.67061,-8.12421 -0.8371,-5.27278 2.25815,-10.06701 4.86699,-14.45234 1.66571,-2.88527 1.70976,-6.59465 -0.32568,-9.29245 -5.06857,-5.8341 -3.9397,-12.80568 2.92951,-15.95897 z"
         id="path1203-3-0-8-6"
         sodipodi:nodetypes="ccccccccccc" />
      <path
         style="fill:#000080;fill-opacity:1;stroke:#0e3160;stroke-width:4.5;stroke-linecap:butt;stroke-linejoin:miter;stroke-miterlimit:4;stroke-dasharray:none;stroke-opacity:1"
         d="m 307.89227,-157.53681 c 0,-5.11632 0.20695,-23.69505 0.93905,-28.78218 0.40575,-2.81948 0.88849,-3.93817 1.08745,-6.57936 0.50618,-6.71914 0.24165,-13.49129 0.24165,-20.22089"
         id="path233-62-2-97-3"
         sodipodi:nodetypes="cssc" />
      <path
         style="fill:#000080;fill-opacity:1;stroke:#0e3160;stroke-width:3;stroke-linecap:round;stroke-linejoin:miter;stroke-miterlimit:4;stroke-dasharray:none;stroke-opacity:1"
         d="m 306.92042,-187.36481 c -16.19425,-4.57669 -13.58438,-4.98029 -18.84305,-9.31098"
         id="path235-9-7-36-2"
         sodipodi:nodetypes="cc" />
      <path
         style="fill:#000080;fill-opacity:1;stroke:#0e3160;stroke-width:3.00001;stroke-linecap:round;stroke-linejoin:miter;stroke-miterlimit:4;stroke-dasharray:none;stroke-opacity:1"
         d="m 295.81532,-190.16276 c -4.32089,1.54449 -7.95357,3.42939 -12.88427,3.42939"
         id="path237-1-0-1-0"
         sodipodi:nodetypes="cc" />
      <path
         style="fill:#a92420;fill-opacity:1;stroke:#a92420;stroke-width:4.5;stroke-linecap:butt;stroke-linejoin:miter;stroke-miterlimit:4;stroke-dasharray:none;stroke-opacity:1"
         d="m 305.10423,-157.53681 c 0,-5.11632 -0.20695,-23.69505 -0.93905,-28.78218 -0.40575,-2.81948 -0.88849,-3.93817 -1.08745,-6.57936 -0.50618,-6.71914 -0.24165,-13.49129 -0.24165,-20.22089"
         id="path233-62-2-9-2-6"
         sodipodi:nodetypes="cssc" />
      <path
         style="fill:#a92420;fill-opacity:1;stroke:#a92420;stroke-width:3;stroke-linecap:round;stroke-linejoin:miter;stroke-miterlimit:4;stroke-dasharray:none;stroke-opacity:1"
         d="m 306.39809,-178.54022 c 16.19425,-4.57669 15.01454,-5.51812 20.27321,-9.84881"
         id="path235-9-7-3-9-1"
         sodipodi:nodetypes="cc" />
      <path
         style="fill:#a92420;fill-opacity:1;stroke:#a92420;stroke-width:3.00001;stroke-linecap:round;stroke-linejoin:miter;stroke-miterlimit:4;stroke-dasharray:none;stroke-opacity:1"
         d="m 317.4026,-181.34788 c 4.32089,1.5445 7.95357,3.42939 12.88427,3.42939"
         id="path237-1-0-6-3-5"
         sodipodi:nodetypes="cc" />
    </g>
  </g>
</svg>
